<?xml version="1.0" encoding="UTF-8"?>
<svg id="Livello_1" xmlns="http://www.w3.org/2000/svg" version="1.1" viewBox="0 0 371.4 84.9">
  <!-- Generator: Adobe Illustrator 29.0.1, SVG Export Plug-In . SVG Version: 2.1.0 Build 192)  -->
  <defs>
    <style>
      .st0 {
        font-size: 70.2px;
      }

      .st0, .st1, .st2 {
        font-family: SwanleyFree-Regular, 'Swanley Free';
      }

      .st0, .st1, .st3 {
        fill: #c9a54b;
      }

      .st1, .st2 {
        font-size: 45.7px;
      }

      .st4 {
        font-family: Gotu, Gotu;
        font-size: 14px;
        letter-spacing: .4em;
      }
    </style>
  </defs>
  <g>
    <text class="st0" transform="translate(48.3 54.6) scale(1.1 1)"><tspan x="0" y="0">Atanassov</tspan></text>
    <text class="st4" transform="translate(50.2 73.4) scale(1.1 1)"><tspan x="0" y="0">LUXURY FRAGRANCES</tspan></text>
  </g>
  <g>
    <g>
      <path class="st3" d="M-123.4,28.3s0,0,0-.1c-.9-2.4-1.9-5-2.9-7.5-1-2.6-2-5.1-2.9-7.6-1-2.5-1.8-4.7-2.6-6.6-.8-1.9-1.4-3.5-1.9-4.7-.5-1.2-.7-1.8-.8-1.9,0-.1-.2-.2-.5-.3,0,0-.2,0-.2,0,0,0-.2.2-.3.4-.1.2-.2.5-.4.9-.1.4-.3.9-.6,1.7-.3.8-.5,1.4-.6,1.8-.2.4-.3.8-.3,1,0,.3,0,.5,0,.7,0,.2.2.5.4.8,0,0,.2.6.5,1.4.3.8.7,1.9,1.2,3.3.5,1.3,1.1,2.8,1.7,4.5s1.2,3.3,1.9,5c.6,1.7,1.3,3.4,1.8,5,.6,1.5,1,2.9,1.5,4.1,0,.1,0,.2.1.3.1.3.2.6.3.9.9-.2,1.9-.4,2.8-.8.8-.3,1.6-.6,2.3-.9-.2-.5-.4-1-.6-1.5Z"/>
      <path class="st3" d="M-118.4,41.2c0,0,0,.1,0,.2,0,0-.1,0-.3,0-.2,0-.5,0-.9,0h-4.9l-.4-.8c-.3-.6-.6-1.2-.9-1.8-.3-.7-.7-1.3-1.1-2-.4-.7-.7-1.3-1.1-1.9-.3-.6-.7-1.1-.9-1.4-.5-.7-.9-1.3-1.4-1.9-.3-.4-.6-.7-.9-1.1-1.2-1.4-2.4-2.6-3.6-3.6-2-1.6-4.1-2.8-6.4-3.5-.3-.1-.7-.2-.9-.3-.3,0-.5,0-.5,0,0,0-.3.4-.6,1.2-.2.4-.4.9-.5,1.4-.1.4-.3.8-.4,1.3-.3.7-.5,1.4-.8,2.1-.1.3-.2.6-.3,1-.3,1-.6,1.6-.7,1.9-.3.8-.6,1.6-.8,2.3-.2.7-.4,1.3-.6,2-.2.6-.3,1.3-.4,1.9,0,.6-.2,1.3-.3,2v1.2h-2.7l.3-.8c0-.1.2-.5.4-1.1.2-.6.5-1.4.8-2.4.3-1,.8-2.1,1.2-3.4.4-1.3.9-2.6,1.4-3.9.2-.4.3-.8.5-1.3.3-1,.7-2,1.1-3.1,0-.3.2-.5.3-.8.5-1.3.9-2.5,1.4-3.8.6-1.5,1.1-2.9,1.5-4.2.5-1.3.9-2.4,1.2-3.3.6-1.8,1.2-3.3,1.7-4.5.5-1.2.7-1.9.8-1.9,0,0,.2.3.3.7l.3.7-2.2,6c-.6,1.7-1.1,3.1-1.5,4.3-.4,1.2-.6,1.8-.6,1.8s.2.2.5.3c.3.2.7.4,1.2.6.5.2,1,.5,1.6.9.6.3,1.1.7,1.5,1,.8.5,1.5,1.2,2.4,1.9.8.8,1.7,1.6,2.6,2.4.8.8,1.6,1.6,2.3,2.5,0,0,0,.1.2.2.3.3.5.6.7.9.5.6.9,1.2,1.3,1.8.3.4.5.8.7,1,.2.3.3.4.4.3-.4-1.2-.8-2.3-1.2-3.3.9-.2,1.9-.4,2.8-.8.8-.3,1.6-.6,2.3-.9.7,1.8,1.3,3.5,1.9,5,.7,1.9,1.3,3.5,1.8,4.7.5,1.2.7,1.8.7,1.8Z"/>
    </g>
    <path d="M-111.6-1.4c-.1-.2-.3-.5-.5-.9-.2-.3-.5-.7-.7-1.1-.3-.4-.6-.7-.8-1.1-.3-.4-.7-.8-1.2-1.3-.5-.5-1-.9-1.5-1.4-.5-.4-1-.9-1.6-1.3-.5-.4-1-.7-1.4-1-3-1.9-6.4-3.2-10.3-3.8-2.4-.4-4.9-.4-7.3,0-2.4.3-4.8,1-7,1.9-2.2.9-4.3,2.2-6.1,3.7-1.9,1.5-3.5,3.2-4.8,5.2-1.2,1.8-2.1,3.9-2.8,6.1,0,.4-.2.8-.3,1.1,0,.3-.1.6-.2.9,0,.3,0,.7-.1,1.2,0,.4,0,.9-.1,1.6,0,1.1,0,2,0,2.6,0,.6.1,1.3.2,1.9.5,2.5,1.4,4.9,2.7,7.1,1.3,2.2,3,4.1,5,5.8,1.3,1.1,2.6,2,4.1,2.8.3-1,.7-2,1.1-3.1,0-.3.2-.5.3-.8-2-2.3-3.5-5.2-4.4-8.7-.6-2.1-.8-4.4-.8-6.9s.3-4.9.8-6.9c.8-2.5,1.8-4.8,3-6.8,1.3-2,2.8-3.6,4.5-4.9.8-.6,1.4-1,2-1.3.5-.2,1.2-.4,2-.7,3.3-.8,6.5-.7,9.6,0,2.7.7,5.2,2,7.5,3.8,2.3,1.8,4.1,4,5.4,6.5l.6,1.2,1.5-.5c.4-.2.8-.3,1.1-.4.3,0,.5-.2.5-.2,0,0,0-.2-.1-.4ZM-131.2,30.7c-.4,0-.9,0-1.3,0-1.2,0-2.3,0-3.3-.3-3.1-.7-5.8-2.2-8-4.5-.1.4-.3.8-.4,1.3-.3.7-.5,1.4-.8,2.1.5.3,1.1.5,1.6.7,2.5,1,5.2,1.6,8.1,1.9.5,0,1,0,1.5,0,.5,0,.8,0,1,0,.2,0,.5,0,.9,0,.4,0,.8,0,1.2,0,.2,0,.4,0,.5,0-.3-.4-.6-.7-.9-1.1ZM-112.5,18.3c-.4-.2-.8-.3-1.1-.4-.3,0-.5-.1-.5,0,0,0-.1.2-.3.5-.1.3-.3.7-.6,1.1-.8,1.6-1.8,3-3,4.5-1.2,1.4-2.6,2.6-4,3.6-.5.3-1,.6-1.5.9-.6.3-1.2.6-1.8.9-1,.4-2.1.8-3.1,1-.2,0-.4,0-.5.1-.3,0-.7.1-1,.2,0,0,0,.1.2.2.3.3.5.6.7.9.4,0,.8-.1,1.1-.2.9-.2,1.9-.4,2.8-.8.8-.3,1.6-.6,2.3-.9,1.1-.5,2.1-1,3-1.6,1.7-1,3.2-2.2,4.6-3.6,1.4-1.4,2.6-2.9,3.6-4.5l.7-1.2-1.5-.6Z"/>
  </g>
  <g>
    <g>
      <path class="st3" d="M78.3-36.9s0,0,0-.1c-.9-2.4-1.9-5-2.9-7.5-1-2.6-2-5.1-2.9-7.6-1-2.5-1.8-4.7-2.6-6.6-.8-1.9-1.4-3.5-1.9-4.7-.5-1.2-.7-1.8-.8-1.9,0-.1-.2-.2-.5-.3,0,0-.2,0-.2,0,0,0-.2.2-.3.4-.1.2-.2.5-.4.9-.1.4-.3.9-.6,1.7-.3.8-.5,1.4-.6,1.8-.2.4-.3.8-.3,1,0,.3,0,.5,0,.7,0,.2.2.5.4.8,0,0,.2.6.5,1.4.3.8.7,1.9,1.2,3.3.5,1.3,1.1,2.8,1.7,4.5s1.2,3.3,1.9,5c.6,1.7,1.3,3.4,1.8,5,.6,1.5,1,2.9,1.5,4.1,0,.1,0,.2.1.3.1.3.2.6.3.9.9-.2,1.9-.4,2.8-.8.8-.3,1.6-.6,2.3-.9-.2-.5-.4-1-.6-1.5Z"/>
      <path class="st3" d="M83.3-24c0,0,0,.1,0,.2,0,0-.1,0-.3,0-.2,0-.5,0-.9,0h-4.9l-.4-.8c-.3-.6-.6-1.2-.9-1.8-.3-.7-.7-1.3-1.1-2-.4-.7-.7-1.3-1.1-1.9-.3-.6-.7-1.1-.9-1.4-.5-.7-.9-1.3-1.4-1.9-.3-.4-.6-.7-.9-1.1-1.2-1.4-2.4-2.6-3.6-3.6-2-1.6-4.1-2.8-6.4-3.5-.3-.1-.7-.2-.9-.3-.3,0-.5,0-.5,0,0,0-.3.4-.6,1.2-.2.4-.4.9-.5,1.4-.1.4-.3.8-.4,1.3-.3.7-.5,1.4-.8,2.1-.1.3-.2.6-.3,1-.3,1-.6,1.6-.7,1.9-.3.8-.6,1.6-.8,2.3-.2.7-.4,1.3-.6,2-.2.6-.3,1.3-.4,1.9,0,.6-.2,1.3-.3,2v1.2h-2.7l.3-.8c0-.1.2-.5.4-1.1.2-.6.5-1.4.8-2.4.3-1,.8-2.1,1.2-3.4.4-1.3.9-2.6,1.4-3.9.2-.4.3-.8.5-1.3.3-1,.7-2,1.1-3.1,0-.3.2-.5.3-.8.5-1.3.9-2.5,1.4-3.8.6-1.5,1.1-2.9,1.5-4.2.5-1.3.9-2.4,1.2-3.3.6-1.8,1.2-3.3,1.7-4.5.5-1.2.7-1.9.8-1.9,0,0,.2.3.3.7l.3.7-2.2,6c-.6,1.7-1.1,3.1-1.5,4.3-.4,1.2-.6,1.8-.6,1.8s.2.2.5.3c.3.2.7.4,1.2.6.5.2,1,.5,1.6.9.6.3,1.1.7,1.5,1,.8.5,1.5,1.2,2.4,1.9.8.8,1.7,1.6,2.6,2.4.8.8,1.6,1.6,2.3,2.5,0,0,0,.1.2.2.3.3.5.6.7.9.5.6.9,1.2,1.3,1.8.3.4.5.8.7,1,.2.3.3.4.4.3-.4-1.2-.8-2.3-1.2-3.3.9-.2,1.9-.4,2.8-.8.8-.3,1.6-.6,2.3-.9.7,1.8,1.3,3.5,1.9,5,.7,1.9,1.3,3.5,1.8,4.7.5,1.2.7,1.8.7,1.8Z"/>
    </g>
    <path d="M90.1-66.6c-.1-.2-.3-.5-.5-.9-.2-.3-.5-.7-.7-1.1-.3-.4-.6-.7-.8-1.1-.3-.4-.7-.8-1.2-1.3-.5-.5-1-.9-1.5-1.4-.5-.4-1-.9-1.6-1.3-.5-.4-1-.7-1.4-1-3-1.9-6.4-3.2-10.3-3.8-2.4-.4-4.9-.4-7.3,0-2.4.3-4.8,1-7,1.9-2.2.9-4.3,2.2-6.1,3.7-1.9,1.5-3.5,3.2-4.8,5.2-1.2,1.8-2.1,3.9-2.8,6.1,0,.4-.2.8-.3,1.1,0,.3-.1.6-.2.9,0,.3,0,.7-.1,1.2,0,.4,0,.9-.1,1.6,0,1.1,0,2,0,2.6,0,.6.1,1.3.2,1.9.5,2.5,1.4,4.9,2.7,7.1,1.3,2.2,3,4.1,5,5.8,1.3,1.1,2.6,2,4.1,2.8.3-1,.7-2,1.1-3.1,0-.3.2-.5.3-.8-2-2.3-3.5-5.2-4.4-8.7-.6-2.1-.8-4.4-.8-6.9s.3-4.9.8-6.9c.8-2.5,1.8-4.8,3-6.8,1.3-2,2.8-3.6,4.5-4.9.8-.6,1.4-1,2-1.3.5-.2,1.2-.4,2-.7,3.3-.8,6.5-.7,9.6,0,2.7.7,5.2,2,7.5,3.8,2.3,1.8,4.1,4,5.4,6.5l.6,1.2,1.5-.5c.4-.2.8-.3,1.1-.4.3,0,.5-.2.5-.2,0,0,0-.2-.1-.4ZM70.5-34.5c-.4,0-.9,0-1.3,0-1.2,0-2.3,0-3.3-.3-3.1-.7-5.8-2.2-8-4.5-.1.4-.3.8-.4,1.3-.3.7-.5,1.4-.8,2.1.5.3,1.1.5,1.6.7,2.5,1,5.2,1.6,8.1,1.9.5,0,1,0,1.5,0,.5,0,.8,0,1,0,.2,0,.5,0,.9,0,.4,0,.8,0,1.2,0,.2,0,.4,0,.5,0-.3-.4-.6-.7-.9-1.1ZM89.3-46.9c-.4-.2-.8-.3-1.1-.4-.3,0-.5-.1-.5,0,0,0-.1.2-.3.5-.1.3-.3.7-.6,1.1-.8,1.6-1.8,3-3,4.5-1.2,1.4-2.6,2.6-4,3.6-.5.3-1,.6-1.5.9-.6.3-1.2.6-1.8.9-1,.4-2.1.8-3.1,1-.2,0-.4,0-.5.1-.3,0-.7.1-1,.2,0,0,0,.1.2.2.3.3.5.6.7.9.4,0,.8-.1,1.1-.2.9-.2,1.9-.4,2.8-.8.8-.3,1.6-.6,2.3-.9,1.1-.5,2.1-1,3-1.6,1.7-1,3.2-2.2,4.6-3.6,1.4-1.4,2.6-2.9,3.6-4.5l.7-1.2-1.5-.6Z"/>
    <text class="st2" transform="translate(90.8 -40.5) scale(1.1 1)"><tspan x="0" y="0">hristian</tspan></text>
    <text class="st1" transform="translate(82.5 -17.5) scale(1.1 1)"><tspan x="0" y="0">tanassov</tspan></text>
  </g>
</svg>