<?xml version="1.0" encoding="UTF-8"?>
<svg id="Layer_1" xmlns="http://www.w3.org/2000/svg" version="1.1" viewBox="0 0 32 32">
  <!-- Generator: Adobe Illustrator 29.0.1, SVG Export Plug-In . SVG Version: 2.1.0 Build 192)  -->
  <defs>
    <style>
      .st0 {
        fill: #caa64a;
      }
    </style>
  </defs>
  <g>
    <path class="st0" d="M22.3,24s0,0,0,0c-.5-1.4-1.1-2.8-1.7-4.3-.6-1.5-1.1-2.9-1.7-4.3-.6-1.4-1-2.6-1.5-3.7-.4-1.1-.8-2-1.1-2.7-.3-.7-.4-1-.4-1.1,0,0-.1-.1-.3-.2,0,0,0,0-.1,0,0,0,0,0-.1.2,0,.1-.1.3-.2.5,0,.2-.2.5-.3.9-.1.5-.3.8-.4,1,0,.2-.1.4-.1.6,0,.2,0,.3,0,.4,0,.1.1.3.2.5,0,0,.1.3.3.8.2.5.4,1.1.7,1.9.3.7.6,1.6,1,2.5s.7,1.9,1.1,2.9c.4,1,.7,1.9,1,2.8.3.9.6,1.6.8,2.3,0,0,0,.1,0,.2,0,.2.1.3.2.5.5-.1,1.1-.3,1.6-.4.4-.1.9-.3,1.3-.5-.1-.3-.2-.6-.3-.9Z"/>
    <path class="st0" d="M25.1,31.4s0,0,0,.1c0,0,0,0-.2,0-.1,0-.3,0-.5,0h-2.8l-.2-.5c-.1-.3-.3-.7-.5-1-.2-.4-.4-.7-.6-1.1-.2-.4-.4-.7-.6-1.1-.2-.3-.4-.6-.5-.8-.3-.4-.5-.7-.8-1.1-.2-.2-.3-.4-.5-.6-.7-.8-1.4-1.5-2.1-2-1.1-.9-2.3-1.6-3.6-2-.2,0-.4-.1-.5-.1-.2,0-.3,0-.3,0,0,0-.2.2-.3.7-.1.2-.2.5-.3.8,0,.2-.2.5-.3.7-.2.4-.3.8-.4,1.2,0,.2-.1.4-.2.5-.2.6-.3.9-.4,1.1-.2.5-.3.9-.4,1.3-.1.4-.2.8-.3,1.1,0,.4-.2.7-.2,1.1,0,.4-.1.7-.1,1.1v.7h-1.5v-.4c.2,0,.3-.3.4-.6.1-.3.3-.8.5-1.3.2-.6.4-1.2.7-1.9.3-.7.5-1.5.8-2.2,0-.2.2-.5.3-.7.2-.6.4-1.1.6-1.7,0-.1.1-.3.2-.4.3-.7.5-1.4.8-2.1.3-.9.6-1.6.9-2.4.3-.7.5-1.4.7-1.9.4-1,.7-1.9.9-2.6.3-.7.4-1.1.4-1.1,0,0,.1.1.2.4v.4c.1,0-1.1,3.4-1.1,3.4-.3,1-.6,1.8-.9,2.4-.2.7-.4,1-.4,1s0,0,.3.2c.2.1.4.2.7.3.3.1.6.3.9.5.3.2.6.4.9.6.4.3.9.7,1.4,1.1.5.4,1,.9,1.4,1.4.4.5.9.9,1.3,1.4,0,0,0,0,0,.1.1.2.3.4.4.5.3.3.5.7.7,1,.1.2.3.4.4.6.1.2.2.2.2.2-.2-.7-.5-1.3-.7-1.9.5-.1,1.1-.3,1.6-.4.4-.1.9-.3,1.3-.5.4,1,.7,2,1.1,2.8.4,1.1.8,2,1,2.7.3.7.4,1,.4,1Z"/>
  </g>
  <path class="st0" d="M28.9,7.2c0-.1-.2-.3-.3-.5-.1-.2-.3-.4-.4-.6-.2-.2-.3-.4-.5-.6-.2-.2-.4-.5-.7-.7-.3-.3-.5-.5-.8-.8-.3-.3-.6-.5-.9-.7-.3-.2-.6-.4-.8-.6-1.7-1.1-3.6-1.8-5.8-2.1-1.4-.2-2.7-.2-4.1,0-1.4.2-2.7.5-4,1.1-1.3.5-2.4,1.2-3.5,2.1-1.1.8-2,1.8-2.7,3-.7,1-1.2,2.2-1.6,3.5,0,.2-.1.4-.1.6,0,.2,0,.3,0,.5,0,.2,0,.4,0,.7,0,.2,0,.5,0,.9,0,.6,0,1.1,0,1.5,0,.4,0,.7.1,1.1.3,1.4.8,2.8,1.5,4,.8,1.3,1.7,2.3,2.8,3.3.7.6,1.5,1.1,2.3,1.6.2-.6.4-1.1.6-1.7,0-.1.1-.3.2-.4-1.1-1.3-2-3-2.5-4.9-.3-1.2-.5-2.5-.5-3.9s.2-2.7.5-3.9c.4-1.4,1-2.7,1.7-3.9.7-1.1,1.6-2.1,2.6-2.8.4-.3.8-.6,1.1-.7.3-.1.7-.3,1.1-.4,1.9-.4,3.7-.4,5.5,0,1.5.4,2.9,1.1,4.2,2.1,1.3,1,2.3,2.2,3.1,3.7l.3.7.8-.3c.2,0,.4-.2.6-.2.2,0,.3-.1.3-.1,0,0,0-.1,0-.2ZM17.8,25.4c-.2,0-.5,0-.7,0-.7,0-1.3,0-1.9-.2-1.8-.4-3.3-1.3-4.6-2.6,0,.2-.2.5-.3.7-.2.4-.3.8-.4,1.2.3.1.6.3.9.4,1.4.6,3,.9,4.6,1,.3,0,.6,0,.8,0,.3,0,.5,0,.6,0,.1,0,.3,0,.5,0,.2,0,.4,0,.7,0,.1,0,.2,0,.3,0-.2-.2-.3-.4-.5-.6ZM28.5,18.3c-.2,0-.4-.2-.6-.2-.2,0-.3,0-.3,0,0,0,0,0-.2.3,0,.2-.2.4-.3.6-.4.9-1,1.7-1.7,2.5-.7.8-1.4,1.5-2.3,2-.3.2-.6.4-.9.5-.3.2-.7.3-1,.5-.6.3-1.2.4-1.8.6-.1,0-.2,0-.3,0-.2,0-.4,0-.6.1,0,0,0,0,0,.1.1.2.3.4.4.5.2,0,.4,0,.6-.1.5-.1,1.1-.3,1.6-.4.4-.1.9-.3,1.3-.5.6-.3,1.2-.6,1.7-.9.9-.6,1.8-1.3,2.6-2,.8-.8,1.5-1.6,2-2.6l.4-.7-.9-.3Z"/>
</svg>